<?xml version="1.0" encoding="utf-8"?>
<!-- Generator: Adobe Illustrator 24.0.2, SVG Export Plug-In . SVG Version: 6.00 Build 0)  -->
<svg version="1.1" id="Capa_1" xmlns="http://www.w3.org/2000/svg" xmlns:xlink="http://www.w3.org/1999/xlink" x="0px" y="0px"
	 viewBox="0 0 22 34" style="enable-background:new 0 0 22 34;" xml:space="preserve">
<path d="M14.6,29.5V18.1c0-0.3,0.1-0.6,0.3-0.8l5.6-8c0.1-0.2,0.4-0.1,0.4,0.1v11.8c0,0.3-0.1,0.6-0.3,0.8L15,29.7
	C14.9,29.9,14.6,29.8,14.6,29.5"/>
<path d="M1.6,17.1V1.4c0-0.2,0.2-0.2,0.3-0.1l3.3,4.4c0,0,0,0.1,0,0.1v4.8c0,0.2,0.2,0.2,0.3,0.1L7,8.7c0.1-0.1,0.2-0.1,0.3,0
	l6.3,8.6c0.2,0.2,0.3,0.5,0.3,0.8v14.3c0,0.2-0.2,0.2-0.3,0.1L1.9,18C1.7,17.7,1.6,17.4,1.6,17.1"/>
</svg>
