<?xml version="1.0" encoding="utf-8"?>
<!-- Generator: Adobe Illustrator 24.0.2, SVG Export Plug-In . SVG Version: 6.00 Build 0)  -->
<svg version="1.1" id="Capa_1" xmlns="http://www.w3.org/2000/svg" xmlns:xlink="http://www.w3.org/1999/xlink" x="0px" y="0px"
	 viewBox="0 0 36 36" style="enable-background:new 0 0 36 36;" xml:space="preserve">
<g>
	<path d="M22,30.9V19.5c0-0.3,0.1-0.6,0.3-0.8l5.6-8c0.1-0.2,0.4-0.1,0.4,0.1v11.8c0,0.3-0.1,0.6-0.3,0.8l-5.6,7.7
		C22.3,31.3,22,31.2,22,30.9"/>
	<path d="M9,18.5V2.8c0-0.2,0.2-0.2,0.3-0.1l3.3,4.4v0.1V12c0,0.2,0.2,0.2,0.3,0.1l1.5-2c0.1-0.1,0.2-0.1,0.3,0l6.3,8.6
		c0.2,0.2,0.3,0.5,0.3,0.8v14.3c0,0.2-0.2,0.2-0.3,0.1L9.3,19.4C9.1,19.1,9,18.8,9,18.5"/>
</g>
</svg>
